<?xml version="1.0" encoding="UTF-8" standalone="no"?>
<!-- Created with Inkscape (http://www.inkscape.org/) -->

<svg
   width="298.93115"
   height="298.93115"
   viewBox="0 0 298.93115 298.93115"
   version="1.1"
   id="svg1"
   xml:space="preserve"
   xmlns:xlink="http://www.w3.org/1999/xlink"
   xmlns="http://www.w3.org/2000/svg"
   xmlns:svg="http://www.w3.org/2000/svg"><defs
     id="defs1"><linearGradient
       id="linearGradient4"><stop
         style="stop-color:#ff69b4;stop-opacity:1;"
         offset="0"
         id="stop6" /><stop
         style="stop-color:#ff1493;stop-opacity:1;"
         offset="0.99989998"
         id="stop4" /><stop
         style="stop-color:#c54cff;stop-opacity:0;"
         offset="1"
         id="stop5" /></linearGradient><linearGradient
       xlink:href="#linearGradient4"
       id="linearGradient5"
       x1="255.6881"
       y1="44.311893"
       x2="44.311886"
       y2="255.68811"
       gradientUnits="userSpaceOnUse" /></defs><g
     id="layer4"
     style="display:inline;fill:#18c6ff;fill-opacity:1"
     transform="translate(-0.53443909,-0.53443909)"><circle
       style="display:inline;fill:url(#linearGradient5);fill-opacity:1;stroke:none;stroke-width:1.06755"
       id="path2"
       cx="150"
       cy="150"
       r="149.46556" /></g><g
     id="layer2"
     style="display:none;fill:#ffffff;fill-opacity:1;stroke:none"
     transform="translate(-0.53443909,-0.53443909)"><path
       style="display:inline;opacity:1;fill:#ffffff;fill-opacity:1;stroke:none"
       d="m 58.888697,64.37389 c -1.774068,11.027992 10.693058,40.50507 2.624423,79.66887 -2.761257,13.40268 -16.114724,29.35403 -19.45854,37.55378 -8.174754,20.04624 1.722195,47.17624 14.202945,52.48965 49.890545,21.23982 146.154395,20.77609 192.236085,2.88149 8.52343,-3.30985 25.37027,-27.25001 18.85848,-48.43002 -6.79914,-22.11464 -12.69277,-22.9328 -23.34516,-44.03034 C 230.89815,115.63539 222.70681,91.218263 231.28272,59.393931 223.8732,54.454246 190.66015,70.163171 186.26931,97.468652 161.29647,91.019619 119.88223,92.599594 109.17958,95.481076 103.69104,83.406291 67.282836,54.935009 58.888697,64.37389 Z"
       id="path14" /></g><g
     id="layer3"
     style="display:none"
     transform="translate(-0.53443909,-0.53443909)"><path
       id="path15"
       style="opacity:1;fill:#ffffff;fill-opacity:1;stroke:none;stroke-width:1.05761"
       d="m 66.730186,49.863122 c -2.624339,5.474984 -4.541478,11.255403 -6.432656,17.014875 -1.341496,4.197419 -2.598369,8.486624 -3.699401,12.673689 -1.651833,6.224147 -3.077202,12.623443 -4.162155,18.901428 -0.455428,2.693296 -0.858115,5.411336 -1.167085,8.070446 -0.585133,5.02165 -0.903354,10.08532 -0.702317,15.14113 0.03289,0.45545 0.06238,1.30456 0.11577,1.9113 0.331377,3.96589 1.0517,7.89493 1.186545,11.87909 0.410864,6.9739 -0.437034,13.99089 -2.321613,20.71122 -1.41602,5.13128 -3.154945,10.25344 -4.657073,15.25546 -3.06578,10.10238 -5.433923,20.41954 -7.057717,30.85091 -0.869614,6.5225 0.649469,13.29095 4.132322,18.86445 4.540736,7.35093 11.610074,12.75818 19.101628,16.85406 3.661682,1.98915 7.354582,3.62557 11.274186,5.08333 5.858236,2.18366 11.914948,3.81339 18.049377,5.00719 0.469325,0.0794 1.318857,0.2385 1.93379,0.34842 13.260263,2.30066 26.935713,2.65987 40.220273,0.34439 7.44464,-1.32813 14.7878,-3.5959 21.38288,-7.35037 8.70978,4.81765 18.61431,7.02177 28.45434,7.93854 11.83478,1.03814 23.84939,0.16311 35.38832,-2.67942 0.39922,-0.11089 1.22818,-0.32281 1.7919,-0.47237 9.81206,-2.68432 19.45428,-6.90778 27.05028,-13.81334 5.44071,-4.92594 9.51881,-11.50912 10.80212,-18.7896 0.97439,-5.06633 0.54968,-10.28207 -0.46203,-15.30668 -1.83627,-10.54286 -4.45681,-20.93933 -7.71642,-31.13059 -2.24321,-7.15224 -4.72794,-14.42689 -5.45264,-21.97389 -0.69518,-6.54431 -0.11913,-13.1394 0.79281,-19.63206 0.14633,-1.26676 0.2372,-2.77836 0.29514,-3.90004 0.20265,-5.05576 -0.1182,-10.11947 -0.70231,-15.14113 -0.20635,-1.75979 -0.47741,-3.77421 -0.75651,-5.53202 -1.2031,-7.716542 -2.95192,-15.477681 -5.01023,-23.075748 -0.72226,-2.653738 -1.54244,-5.50886 -2.378,-8.219748 -2.0322,-6.467314 -4.14893,-12.934407 -6.96426,-19.109951 -0.25417,-0.593797 -0.48376,-1.341429 -1.21031,-0.760744 -3.82432,1.558102 -7.4595,3.559466 -11.03698,5.500859 -11.2958,6.29159 -22.28961,13.143969 -32.81,20.664247 -3.71955,2.679597 -7.50681,5.558662 -11.0136,8.640612 -1.27846,1.169594 -2.61502,2.608377 -4.48648,2.62216 -2.21796,0.0072 -4.34393,-0.797607 -6.55254,-0.944676 -4.53605,-0.500209 -9.09738,-0.742342 -13.65766,-0.883414 -0.60602,0.448083 -1.20228,-0.181637 -1.87396,0.02443 -5.00122,0.19417 -10.02015,0.407428 -14.97474,1.148054 -2.13898,0.314159 -4.5051,1.268166 -6.54221,0.06653 -1.48934,-0.958121 -2.65685,-2.338078 -4.06024,-3.416101 -8.15769,-6.782945 -17.01232,-12.669711 -25.972431,-18.32851 -7.25897,-4.515127 -14.715578,-8.94666 -22.378611,-12.841562 -1.832656,-0.906262 -3.668287,-1.824427 -5.598383,-2.508189 -0.05371,0.09778 -0.107412,0.195546 -0.161119,0.29332 z" /><path
       style="opacity:1;fill:#18c6ff;fill-opacity:1;stroke:none;stroke-width:1.14451"
       d="m 189.50764,132.32398 -31.25996,17.18022 c -1.80494,1.57014 -0.56156,5.01755 2.04886,5.10681 l 33.62551,0.2954 0.0614,-5.33839 -24.17046,0.31665 23.52532,-11.24867 z"
       id="path3" /><path
       style="opacity:1;fill:#18c6ff;fill-opacity:1;stroke:none;stroke-width:1.23674"
       d="m 110.41349,127.20871 a 11.696319,19.231096 0 0 0 -11.695527,19.23123 11.696319,19.231096 0 0 0 11.695527,19.23122 11.696319,19.231096 0 0 0 11.69809,-19.23122 11.696319,19.231096 0 0 0 -11.69809,-19.23123 z"
       id="path16" /><path
       id="rect18"
       style="opacity:1;fill:#18c6ff;fill-opacity:1;stroke:none;stroke-width:1.05761"
       d="m 197.24955,171.96709 c -1.50598,0 -2.71837,1.21239 -2.71837,2.71838 0,1.50599 1.21239,2.71837 2.71837,2.71837 h 19.7475 c 1.50599,0 2.71838,-1.21238 2.71838,-2.71837 0,-1.50599 -1.21239,-2.71838 -2.71838,-2.71838 z m -126.450058,0.28918 c -1.505987,0 -2.71838,1.2124 -2.71838,2.71839 0,1.50598 1.212393,2.71838 2.71838,2.71838 h 19.747494 c 1.505986,0 2.718379,-1.2124 2.718379,-2.71838 0,-1.50599 -1.212393,-2.71839 -2.718379,-2.71839 z" /><path
       style="fill:#18c6ff;fill-opacity:1;stroke:none"
       d="m 126.96939,201.66146 c -0.75966,-0.0924 -3.03592,1.61638 -2.94056,2.64368 0.0954,1.02731 2.41369,4.1605 4.00807,5.49622 1.59439,1.33572 3.10125,1.73409 4.40407,1.70114 1.30281,-0.0329 2.40155,-0.4972 3.54018,-2.06252 1.13864,-1.56532 2.25089,-4.08178 3.7135,-4.01609 1.46261,0.0657 2.96414,2.69955 4.86976,4.17826 1.90562,1.47872 4.21871,1.65235 6.17512,1.23816 1.95641,-0.41419 4.0028,-1.5467 5.4173,-3.33522 1.4145,-1.78852 2.91336,-5.43335 2.62815,-6.63105 -0.28521,-1.1977 -3.41757,-2.01074 -4.26358,-1.60554 -0.846,0.40521 -2.05861,3.12565 -3.12937,3.95131 -1.07077,0.82565 -3.21297,0.9888 -4.80283,-0.0875 -1.58985,-1.07632 -4.99596,-5.6293 -5.57568,-6.07873 -0.57971,-0.44942 -3.29751,-0.22831 -3.93758,0.41233 -0.64007,0.64065 -2.79739,4.69644 -3.92684,5.84087 -1.12944,1.14442 -2.72158,1.28618 -3.54909,0.79168 -0.8275,-0.49451 -1.87096,-2.34462 -2.63062,-2.43699 z"
       id="path1"
       transform="matrix(1.0576064,0,0,1.0576064,-4.8552289,-15.365578)" /></g><g
     id="g13"
     style="display:none"
     transform="translate(-0.53443909,-0.53443909)"><path
       style="display:inline;opacity:1;fill:#ffffff;fill-opacity:1;stroke:none;stroke-width:1.05761"
       d="m 66.890625,49.570312 -0.160156,0.292969 c -2.624339,5.474984 -4.542416,11.256153 -6.433594,17.015625 -1.341496,4.197419 -2.598187,8.48481 -3.699219,12.671875 -1.651833,6.224147 -3.077156,12.624359 -4.162109,18.902344 -0.455428,2.693295 -0.857046,5.411205 -1.166016,8.070315 -0.585133,5.02165 -0.904162,10.08481 -0.703125,15.14062 0.03289,0.45545 0.06184,1.30537 0.115235,1.91211 0.331377,3.96589 1.052655,7.89475 1.1875,11.87891 0.410864,6.9739 -0.437687,13.99061 -2.322266,20.71094 -0.49674,1.80005 -1.031933,3.59956 -1.583984,5.39257 L 39.46875,159.2832 c -0.214896,-0.0576 -0.42966,-0.0813 -0.640625,-0.0723 -0.914179,0.0391 -1.73706,0.67037 -1.990234,1.61523 -0.311602,1.16292 0.359729,2.3472 1.505859,2.6543 l 8.318359,2.22851 c -0.604612,1.9171 -1.204265,3.82408 -1.771484,5.7129 -0.69632,2.29451 -1.356673,4.60051 -1.980469,6.91601 l -11.189453,0.65234 c -1.18454,0.0691 -2.079863,1.09109 -2.009765,2.29297 0.0701,1.2019 1.079125,2.11401 2.263671,2.04492 l 9.791016,-0.57031 c -1.597768,6.44313 -2.912682,12.95722 -3.933594,19.51563 -0.869614,6.5225 0.64996,13.28978 4.132813,18.86328 4.540736,7.35093 11.610008,12.75763 19.101562,16.85351 3.661682,1.98915 7.353834,3.62623 11.273438,5.08399 5.858236,2.18366 11.916352,3.81401 18.050781,5.00781 0.469325,0.0794 1.318661,0.23774 1.933594,0.34766 13.260261,2.30066 26.936141,2.66118 40.220701,0.3457 7.44464,-1.32813 14.78773,-3.59709 21.38281,-7.35156 8.70978,4.81765 18.6131,7.02268 28.45313,7.93945 11.83478,1.03814 23.84974,0.16284 35.38867,-2.67969 0.39922,-0.11089 1.2273,-0.32309 1.79102,-0.47265 9.81206,-2.68432 19.45478,-6.90694 27.05078,-13.8125 5.44071,-4.92594 9.51942,-11.51054 10.80273,-18.79102 0.97439,-5.06633 0.54882,-10.28203 -0.46289,-15.30664 -0.90707,-5.2079 -2.00503,-10.38039 -3.27734,-15.50976 l 9.20898,0.5371 c 1.18455,0.0691 2.19553,-0.84302 2.26563,-2.04492 0.0701,-1.20189 -0.82718,-2.22388 -2.01172,-2.29297 l -10.60547,-0.61914 c -1.00965,-3.75886 -2.10914,-7.49378 -3.29492,-11.20117 -0.1675,-0.53404 -0.3365,-1.06804 -0.50586,-1.60351 l 7.7832,-2.08594 c 1.14613,-0.3071 1.81746,-1.49139 1.50586,-2.6543 -0.25318,-0.94487 -1.0741,-1.57618 -1.98828,-1.61523 -0.21096,-0.009 -0.42768,0.0147 -0.64258,0.0723 l -7.96289,2.13282 c -1.63464,-5.29945 -3.11126,-10.68561 -3.64258,-16.21875 -0.69518,-6.54431 -0.11897,-13.14016 0.79297,-19.63282 0.14633,-1.26676 0.23698,-2.77871 0.29492,-3.90039 0.20265,-5.05576 -0.11901,-10.11896 -0.70312,-15.14062 -0.20635,-1.75979 -0.47676,-3.77344 -0.75586,-5.53125 -1.2031,-7.716545 -2.95146,-15.478107 -5.00977,-23.076174 -0.72226,-2.653738 -1.54334,-5.509815 -2.3789,-8.220704 -2.0322,-6.467314 -4.14952,-12.93383 -6.96485,-19.109374 -0.25417,-0.593798 -0.48243,-1.340451 -1.20898,-0.759766 -3.82432,1.558102 -7.45963,3.558607 -11.03711,5.5 -11.2958,6.29159 -22.29016,13.143784 -32.81055,20.664062 -3.71955,2.679597 -7.50688,5.558675 -11.01367,8.640625 -1.27846,1.169594 -2.61487,2.609264 -4.48633,2.623047 -2.21796,0.0072 -4.34412,-0.798243 -6.55273,-0.945312 -4.53605,-0.500209 -9.09792,-0.741741 -13.6582,-0.882813 -0.60602,0.448083 -1.20137,-0.182629 -1.87305,0.02344 -5.00122,0.19417 -10.02002,0.407811 -14.97461,1.148437 -2.13898,0.314159 -4.50586,1.268043 -6.54297,0.06641 -1.48934,-0.958121 -2.65716,-2.337992 -4.06055,-3.416015 C 112.68215,76.465102 103.82925,70.578721 94.869141,64.919922 87.610171,60.404795 80.153267,55.973027 72.490234,52.078125 70.657578,51.171863 68.820721,50.254075 66.890625,49.570312 Z"
       id="path9" /><path
       id="path38"
       style="display:inline;fill:#000000;fill-opacity:1;stroke:none;stroke-width:0.577941;stroke-linecap:butt;stroke-linejoin:miter;stroke-dasharray:none;stroke-opacity:1;paint-order:normal"
       d="m 38.828125,163.70703 c -0.91418,0.039 -1.73706,0.67038 -1.990234,1.61524 -0.311602,1.16291 0.359729,2.34718 1.505859,2.65429 l 17.294922,4.63477 c 1.146125,0.30711 2.321211,-0.38202 2.632812,-1.54492 0.311602,-1.16292 -0.361687,-2.3472 -1.507812,-2.6543 L 39.46875,163.7793 c -0.214895,-0.0576 -0.42966,-0.0813 -0.640625,-0.0723 z m 217.203125,0 c -0.21096,-0.009 -0.42768,0.0147 -0.64258,0.0723 l -17.29492,4.63281 c -1.14612,0.3071 -1.81746,1.49139 -1.50586,2.6543 0.3116,1.16292 1.48473,1.85202 2.63086,1.54492 l 17.29492,-4.63477 c 1.14613,-0.30711 1.81746,-1.49137 1.50586,-2.65429 -0.25317,-0.94487 -1.0741,-1.57619 -1.98828,-1.61524 z M 49.816406,182.27734 c -0.07248,-0.003 -0.146669,-0.002 -0.220703,0.002 l -17.875,1.04297 c -1.18454,0.0691 -2.079863,1.09107 -2.009765,2.29296 0.0701,1.20189 1.079124,2.11401 2.263671,2.04493 l 17.875,-1.04102 c 1.184542,-0.0691 2.081816,-1.09303 2.011719,-2.29492 -0.06572,-1.12678 -0.957663,-1.99921 -2.044922,-2.04688 z m 195.224614,0 c -1.08725,0.0477 -1.97921,0.9201 -2.04493,2.04688 -0.0701,1.20189 0.82718,2.22584 2.01172,2.29492 l 17.875,1.04102 c 1.18455,0.0691 2.19553,-0.84304 2.26563,-2.04493 0.0701,-1.20189 -0.82718,-2.22387 -2.01172,-2.29296 l -17.875,-1.04297 c -0.074,-0.004 -0.14821,-0.005 -0.2207,-0.002 z" /><path
       id="path19"
       style="display:inline;opacity:1;fill:#131313;fill-opacity:1;stroke:none;stroke-width:0.9049"
       d="m 78.570312,64.064453 c -0.04596,0.08366 -0.09076,0.168296 -0.136718,0.251953 -2.245406,4.684441 -3.8858,9.628789 -5.503906,14.556641 -1.147796,3.591346 -2.223964,7.261263 -3.166016,10.84375 -1.413322,5.325432 -2.632252,10.802333 -3.560547,16.173823 -0.389668,2.30442 -0.735642,4.62915 -1,6.9043 -0.500644,4.29657 -0.771618,8.62928 -0.599609,12.95508 0.02814,0.38968 0.05393,1.11564 0.09961,1.63477 0.06769,0.81007 0.15377,1.61822 0.248047,2.42578 A 94.951584,86.465195 0 0 1 119.91211,89.054688 C 114.3215,84.808759 108.44114,80.944486 102.50781,77.197266 96.296974,73.334086 89.917882,69.543448 83.361328,66.210938 81.793292,65.435532 80.221719,64.649485 78.570312,64.064453 Z m 138.111328,0.03906 c -0.10923,0.002 -0.23912,0.05548 -0.39453,0.179687 -3.27212,1.333125 -6.38244,3.045959 -9.44336,4.707031 -9.66478,5.383136 -19.07094,11.245276 -28.07227,17.679688 -1.01636,0.732201 -2.03815,1.48289 -3.05664,2.25 a 94.951584,86.465195 0 0 1 54.90235,40.007811 c 0.11477,-1.04934 0.18721,-2.26463 0.23437,-3.17773 0.17339,-4.32575 -0.10179,-8.6585 -0.60156,-12.95508 -0.17655,-1.50569 -0.40768,-3.22842 -0.64648,-4.73242 -1.02939,-6.60234 -2.526,-13.243175 -4.28711,-19.744144 -0.61797,-2.27056 -1.32025,-4.713745 -2.03516,-7.033203 -1.73877,-5.533487 -3.55016,-11.067716 -5.95898,-16.351562 -0.16311,-0.381044 -0.31293,-0.835957 -0.64063,-0.830078 z" /><path
       id="rect10"
       style="display:inline;fill:#000000;fill-opacity:1;stroke:#000000;stroke-width:1;stroke-dasharray:none;stroke-opacity:1"
       d="m 161.49721,110.11277 c -0.21577,-0.004 -0.43988,0.009 -0.67144,0.04 -3.54756,0.47993 -7.03231,1.63868 -10.16888,3.53119 -3.09499,1.90068 -5.72969,4.39389 -7.92736,7.17881 -0.59149,0.74955 -0.86845,1.56523 -0.8662,2.26782 -0.0338,0.3042 0.0105,0.60151 0.14351,0.86715 l 0.0461,0.0904 c 0.52217,1.04294 2.08509,1.30209 3.54852,0.71597 2.87798,-1.15266 5.87369,-1.88675 8.8619,-1.92895 2.98246,-0.0708 5.99198,0.57529 8.80893,1.74648 1.38064,0.57402 2.97264,0.38604 3.53485,-0.63082 l 0.0495,-0.0904 c 0.56078,-1.0143 -0.19688,-2.549 -1.92717,-3.26705 -3.31363,-1.37512 -6.90343,-2.13004 -10.54988,-2.07144 -1.26574,0.0304 -2.51858,0.15275 -3.75183,0.35451 0.70709,-0.55836 1.4425,-1.07152 2.20736,-1.531 2.55426,-1.56777 5.48281,-2.52729 8.4997,-2.93339 1.47863,-0.19903 2.76758,-1.16725 2.7592,-2.33385 v -0.10253 c -0.007,-1.01819 -1.08649,-1.87301 -2.59689,-1.90288 z"
       transform="matrix(1.143193,0,0,1.1239135,3.0220539,12.633391)" /><path
       style="opacity:1;fill:#000000;fill-opacity:1;stroke:none;stroke-width:1.23674"
       d="m 115.91349,127.20871 a 11.696319,19.231096 0 0 0 -11.69553,19.23123 11.696319,19.231096 0 0 0 11.69553,19.23122 11.696319,19.231096 0 0 0 11.69809,-19.23122 11.696319,19.231096 0 0 0 -11.69809,-19.23123 z"
       id="path11" /><path
       style="font-size:61.0171px;line-height:0px;font-family:'Tw Cen MT Condensed Extra Bold';-inkscape-font-specification:'Tw Cen MT Condensed Extra Bold, ';baseline-shift:baseline;display:inline;overflow:visible;opacity:1;vector-effect:none;fill:#000000;fill-opacity:1;stroke:none;stroke-opacity:1;enable-background:accumulate;stop-color:#000000;stop-opacity:1"
       d="m 198.02148,-172.32031 c 2.93867,0 5.29647,1.03269 7.19727,3.14258 v 0.002 c 1.89999,2.08999 2.84961,4.7273 2.84961,8.00586 0,3.80395 -1.42879,6.70174 -4.35547,8.86328 l -0.64648,0.47656 0.71484,0.36914 c 3.42005,1.76702 5.0918,4.82569 5.0918,9.44727 0,1.80798 -0.42677,3.61862 -1.29297,5.44726 v 0.002 c -0.83395,1.78161 -2.02884,3.04413 -3.61719,3.84765 -1.60756,0.79315 -3.50267,1.19727 -5.70312,1.19727 -3.29793,0 -5.93325,-0.94875 -8.00196,-2.8457 l -0.002,-0.002 c -1.94234,-1.80075 -2.96522,-4.27246 -3.21484,-7.38476 h 7.5039 c 0.0781,1.04067 0.30404,1.92973 0.80664,2.56054 0.5858,0.73524 1.49062,1.10352 2.55078,1.10352 1.08247,0 2.00099,-0.54769 2.53711,-1.50586 0.53612,-0.95817 0.76368,-2.28298 0.76367,-3.99805 0,-1.60395 -0.26624,-2.79649 -0.96484,-3.55078 -0.67744,-0.77245 -1.79962,-1.09179 -3.25976,-1.09179 h -3.2069 v -7.25196 h 3.44518 c 1.35595,0 2.4386,-0.36217 3.09765,-1.16601 0.67237,-0.81645 0.94922,-2.02477 0.94922,-3.59571 0,-1.67546 -0.22358,-2.9698 -0.75,-3.9082 -0.52642,-0.9384 -1.42997,-1.47656 -2.49219,-1.47656 -0.98586,0 -1.81639,0.47379 -2.18554,1.31054 l -0.002,0.006 -0.002,0.006 c -0.33458,0.81257 -0.45508,2.03034 -0.45508,3.76563 v 0.33398 h -7.64258 c 0.0636,-1.94768 0.21501,-3.61184 0.51954,-4.69531 1.2e-4,-4.5e-4 -1.3e-4,-0.002 0,-0.002 0.35927,-1.20759 0.96526,-2.39285 1.82812,-3.5625 0.86488,-1.14545 1.98972,-2.06615 3.39649,-2.76953 l 0.002,-0.002 0.004,-0.002 c 1.3998,-0.71881 2.9026,-1.07617 4.53711,-1.07617 z"
       transform="rotate(90)"
       id="path18" /><path
       style="display:inline;fill:#000000;fill-opacity:1;stroke:none;stroke-width:5"
       d="m 152.51409,179.11898 c 0.7513,-0.7513 3.7565,-0.7513 4.50779,1e-5 0.75129,0.75132 -0.75128,2.2539 -2.2539,2.25388 -1.50262,-2e-5 -3.00519,-1.50259 -2.25389,-2.25389 z"
       id="path6"
       transform="matrix(3.9292123,0,0,3.9292123,-456.47328,-525.55805)" /><rect
       style="display:inline;fill:#ffa0ef;fill-opacity:1;stroke:none"
       id="rect21"
       width="30.5"
       height="9.5"
       x="-220.75"
       y="173"
       ry="4.75"
       transform="scale(-1,1)" /><rect
       style="display:inline;fill:#ffa0ef;fill-opacity:1;stroke:none"
       id="rect20"
       width="30.5"
       height="9.5"
       x="75.5"
       y="173"
       ry="4.75" /><path
       id="path5"
       style="display:inline;fill:#ffffff;fill-opacity:1;stroke:none;stroke-width:4.59841"
       d="m 120.47266,132.49414 a 3.8890872,5.8720822 0 0 0 -3.88868,5.87305 3.8890872,5.8720822 0 0 0 3.88868,5.87109 3.8890872,5.8720822 0 0 0 3.89062,-5.87109 3.8890872,5.8720822 0 0 0 -3.89062,-5.87305 z M 109.77344,152.375 a 2.4193847,2.7193542 0 0 0 -2.41992,2.71875 2.4193847,2.7193542 0 0 0 2.41992,2.7207 2.4193847,2.7193542 0 0 0 2.41797,-2.7207 2.4193847,2.7193542 0 0 0 -2.41797,-2.71875 z" /></g><g
     id="g7"
     style="display:none"
     transform="translate(-0.53443909,-0.53443909)"><path
       id="path4"
       style="display:inline;opacity:1;fill:#ffffff;fill-opacity:1;stroke:none;stroke-width:1.05761"
       d="m 66.890625,49.570312 -0.160156,0.292969 c -2.624339,5.474984 -4.542416,11.256153 -6.433594,17.015625 -1.341496,4.197419 -2.598187,8.48481 -3.699219,12.671875 -1.651833,6.224147 -3.077156,12.624359 -4.162109,18.902344 -0.455428,2.693295 -0.857046,5.411205 -1.166016,8.070315 -0.585133,5.02165 -0.904162,10.08481 -0.703125,15.14062 0.03289,0.45545 0.06184,1.30537 0.115235,1.91211 0.331377,3.96589 1.052655,7.89475 1.1875,11.87891 0.410864,6.9739 -0.437687,13.99061 -2.322266,20.71094 -1.41602,5.13128 -3.154122,10.25383 -4.65625,15.25586 -3.06578,10.10238 -5.4348,20.42019 -7.058594,30.85156 -0.869614,6.5225 0.64996,13.28978 4.132813,18.86328 4.540736,7.35093 11.610008,12.75763 19.101562,16.85351 3.661682,1.98915 7.353834,3.62623 11.273438,5.08399 5.858236,2.18366 11.916352,3.81401 18.050781,5.00781 0.469325,0.0794 1.318661,0.23774 1.933594,0.34766 13.260261,2.30066 26.936141,2.66118 40.220701,0.3457 7.44464,-1.32813 14.78773,-3.59709 21.38281,-7.35156 8.70978,4.81765 18.6131,7.02268 28.45313,7.93945 11.83478,1.03814 23.84974,0.16284 35.38867,-2.67969 0.39922,-0.11089 1.2273,-0.32309 1.79102,-0.47265 9.81206,-2.68432 19.45478,-6.90694 27.05078,-13.8125 5.44071,-4.92594 9.51942,-11.51054 10.80273,-18.79102 0.97439,-5.06633 0.54882,-10.28203 -0.46289,-15.30664 -1.83627,-10.54286 -4.45523,-20.9396 -7.71484,-31.13086 -2.24321,-7.15224 -4.72843,-14.42565 -5.45313,-21.97265 -0.69518,-6.54431 -0.11897,-13.14016 0.79297,-19.63282 0.14633,-1.26676 0.23698,-2.77871 0.29492,-3.90039 0.20265,-5.05576 -0.11901,-10.11896 -0.70312,-15.14062 -0.20635,-1.75979 -0.47676,-3.77344 -0.75586,-5.53125 -1.2031,-7.716556 -2.95146,-15.478107 -5.00977,-23.076174 -0.72226,-2.653738 -1.54334,-5.509815 -2.3789,-8.220704 -2.0322,-6.467314 -4.14952,-12.93383 -6.96485,-19.109374 -0.25417,-0.593798 -0.48243,-1.340451 -1.20898,-0.759766 -3.82432,1.558102 -7.45963,3.558607 -11.03711,5.5 -11.2958,6.29159 -22.29016,13.143784 -32.81055,20.664062 -3.71955,2.679597 -7.50688,5.558675 -11.01367,8.640625 -1.27846,1.169594 -2.61487,2.609264 -4.48633,2.623047 -2.21796,0.0072 -4.34412,-0.798243 -6.55273,-0.945312 -4.53605,-0.500209 -9.09792,-0.741741 -13.6582,-0.882813 -0.60602,0.448083 -1.20137,-0.182629 -1.87305,0.02344 -5.00122,0.19417 -10.02002,0.407811 -14.97461,1.148437 -2.13898,0.314159 -4.50586,1.268046 -6.54297,0.06641 -1.48934,-0.958121 -2.65716,-2.337992 -4.06055,-3.416015 C 112.68215,76.465102 103.82925,70.578721 94.869141,64.919922 87.610171,60.404795 80.153267,55.973027 72.490234,52.078125 70.657578,51.171863 68.820721,50.254075 66.890625,49.570312 Z m 11.679687,14.494141 c 1.651407,0.585032 3.22298,1.371075 4.791016,2.146485 6.556554,3.332509 12.935654,7.123148 19.146482,10.986328 5.93333,3.74722 11.81369,7.611489 17.4043,11.857422 A 94.951584,86.465195 0 0 0 64.951172,129.81055 c -0.09428,-0.80756 -0.180357,-1.61571 -0.248047,-2.42578 -0.04568,-0.51913 -0.07147,-1.24509 -0.09961,-1.63477 -0.172009,-4.3258 0.09897,-8.65851 0.599609,-12.95508 0.264358,-2.27515 0.610332,-4.59987 1,-6.9043 0.928295,-5.37148 2.147225,-10.848391 3.560547,-16.173823 0.942052,-3.582487 2.01822,-7.252404 3.166016,-10.84375 1.618104,-4.927852 3.2585,-9.8722 5.503906,-14.556641 0.04596,-0.08366 0.09076,-0.168293 0.136719,-0.251953 z m 138.111328,0.03906 c 0.3277,-0.0059 0.47752,0.449034 0.64063,0.830078 2.40882,5.283846 4.22021,10.818075 5.95898,16.351562 0.71491,2.319458 1.41719,4.762643 2.03516,7.033203 1.76111,6.500969 3.25772,13.141804 4.28711,19.744144 0.2388,1.504 0.46993,3.22673 0.64648,4.73242 0.49977,4.29658 0.77495,8.62933 0.60156,12.95508 -0.0472,0.9131 -0.1196,2.12839 -0.23437,3.17773 A 94.951584,86.465195 0 0 0 175.71484,88.919922 c 1.01849,-0.76711 2.04028,-1.517799 3.05664,-2.25 9.00133,-6.434412 18.40749,-12.296552 28.07227,-17.679688 3.06092,-1.661072 6.17124,-3.373906 9.44336,-4.707031 0.15541,-0.124207 0.2853,-0.177687 0.39453,-0.179687 z M 115.91406,127.20898 a 11.696319,19.231096 0 0 1 11.69727,19.23047 11.696319,19.231096 0 0 1 -11.69727,19.23243 11.696319,19.231096 0 0 1 -11.69531,-19.23243 11.696319,19.231096 0 0 1 11.69531,-19.23047 z m 65.625,16.73047 c 5.40259,0 10.21663,1.21648 14.29688,3.69727 l 1.54687,0.9414 -2.96679,5.66407 -1.75977,-1.07813 c -3.10727,-1.90591 -6.76236,-2.8789 -11.11719,-2.8789 -4.54033,0 -8.23681,0.96343 -11.23242,2.81445 l -1.74414,1.07812 -3.05078,-5.68164 1.61133,-0.9375 c 4.16845,-2.42528 9.01845,-3.61914 14.41601,-3.61914 z M 80.25,173 h 21 c 2.6315,0 4.75,2.1185 4.75,4.75 0,2.6315 -2.1185,4.75 -4.75,4.75 h -21 c -2.6315,0 -4.75,-2.1185 -4.75,-4.75 0,-2.6315 2.1185,-4.75 4.75,-4.75 z M 195,173 h 21 c 2.6315,0 4.75,2.1185 4.75,4.75 0,2.6315 -2.1185,4.75 -4.75,4.75 h -21 c -2.6315,0 -4.75,-2.1185 -4.75,-4.75 0,-2.6315 2.1185,-4.75 4.75,-4.75 z m -52.74805,13.43164 v 8.55078 c -2.44306,0.0397 -3.66406,1.01314 -3.66406,2.91992 0,1.86706 1.66703,2.8008 5.00391,2.80078 1.54926,0 2.62288,-0.27783 3.21875,-0.83398 0.61573,-0.53628 0.92382,-1.50026 0.92383,-2.89062 v -2.74024 h 8.25195 v 2.97852 c 0,1.27119 0.32892,2.1766 0.98437,2.71289 0.67532,0.55614 1.76781,0.83398 3.27735,0.83398 3.25742,0 4.88476,-0.91485 4.88476,-2.74219 0,-0.85408 -0.3364,-1.42862 -1.01172,-1.72656 -0.67532,-0.27807 -1.86801,-0.41797 -3.57617,-0.41797 h -0.83398 v -8.69922 c 2.28417,0.0397 4.06279,0.23819 5.33398,0.59571 1.27119,0.37738 2.51106,1.01244 3.72266,1.90625 1.2116,0.91367 2.18501,2.10636 2.91992,3.57617 0.75477,1.46981 1.13281,3.05746 1.13281,4.76562 0,3.0588 -1.10192,5.58213 -3.30664,7.56836 -2.18486,1.98624 -4.96715,2.97852 -8.34375,2.97852 -3.93274,0 -7.02118,-1.51966 -9.26562,-4.55859 -1.8472,3.57522 -5.14353,5.36328 -9.89063,5.36328 -1.88692,0 -3.77323,-0.44604 -5.66015,-1.33985 -1.86706,-0.87394 -3.22796,-2.15545 -4.08204,-3.84375 -0.83421,-1.6883 -1.25195,-3.66538 -1.25195,-5.92968 0,-3.39646 0.99424,-6.17681 2.98047,-8.3418 2.0061,-2.165 4.75618,-3.32743 8.25195,-3.48633 z" /></g><g
     id="g46"
     style="display:inline"
     transform="translate(-0.53443909,-0.53443909)"><path
       id="path39"
       style="display:inline;opacity:1;fill:#ffffff;fill-opacity:1;stroke:none;stroke-width:1.05761"
       d="m 66.890625,49.570312 -0.160156,0.292969 c -2.624339,5.474984 -4.542416,11.256153 -6.433594,17.015625 -1.341496,4.197419 -2.598187,8.48481 -3.699219,12.671875 -1.651833,6.224147 -3.077156,12.624359 -4.162109,18.902344 -0.455428,2.693295 -0.857046,5.411205 -1.166016,8.070315 -0.585133,5.02165 -0.904162,10.08481 -0.703125,15.14062 0.03289,0.45545 0.06184,1.30537 0.115235,1.91211 0.331377,3.96589 1.052655,7.89475 1.1875,11.87891 0.410864,6.9739 -0.437687,13.99061 -2.322266,20.71094 -0.49674,1.80005 -1.031933,3.59956 -1.583984,5.39257 L 39.46875,159.2832 c -0.214896,-0.0576 -0.42966,-0.0813 -0.640625,-0.0723 -0.914179,0.0391 -1.73706,0.67037 -1.990234,1.61523 -0.311602,1.16292 0.359729,2.3472 1.505859,2.6543 l 1.017578,0.27344 h 0.002 0.002 0.002 c 0.03398,0.007 0.06756,0.0163 0.101562,0.0254 l 17.294922,4.63281 c 1.146125,0.3071 1.819414,1.49138 1.507812,2.6543 -0.311601,1.1629 -1.486687,1.85203 -2.632812,1.54492 l -10.273438,-2.75391 c -0.160451,0.52243 -0.318498,1.04461 -0.474609,1.56446 -0.69632,2.29451 -1.356673,4.60051 -1.980469,6.91601 l -11.189453,0.65234 c -1.18454,0.0691 -2.079863,1.09109 -2.009765,2.29297 0.0642,1.10076 0.915898,1.95753 1.96875,2.04102 0.01362,-10e-4 0.02732,-10e-4 0.04102,-0.002 l 17.875,-1.04297 c 0.07403,-0.004 0.148223,-0.005 0.220703,-0.002 1.087259,0.0477 1.979202,0.9201 2.044922,2.04688 0.0701,1.20189 -0.827177,2.22582 -2.011719,2.29492 l -9.126953,0.53125 c -1.135903,5.00618 -2.101172,10.05155 -2.890625,15.12305 -0.869614,6.5225 0.64996,13.28978 4.132813,18.86328 4.540736,7.35093 11.610008,12.75763 19.101562,16.85351 3.661682,1.98915 7.353834,3.62623 11.273438,5.08399 5.858236,2.18366 11.916352,3.81401 18.050781,5.00781 0.469325,0.0794 1.318661,0.23774 1.933594,0.34766 13.260266,2.30066 26.936136,2.66118 40.220696,0.3457 7.44464,-1.32813 14.78773,-3.59709 21.38281,-7.35156 8.70978,4.81765 18.6131,7.02268 28.45314,7.93945 11.83477,1.03814 23.84974,0.16284 35.38866,-2.67969 0.39923,-0.11089 1.22731,-0.32309 1.79102,-0.47265 9.81206,-2.68432 19.45478,-6.90694 27.05079,-13.8125 5.4407,-4.92594 9.51941,-11.51054 10.80273,-18.79102 0.97439,-5.06633 0.54882,-10.28203 -0.46289,-15.30664 -0.64869,-3.72441 -1.39453,-7.42987 -2.23242,-11.11523 l -9.71094,-0.56641 c -1.18454,-0.0691 -2.08182,-1.09303 -2.01172,-2.29492 0.0657,-1.12678 0.95768,-1.99918 2.04493,-2.04688 0.0725,-0.003 0.1467,-0.002 0.2207,0.002 l 17.875,1.04297 c 0.0138,8e-4 0.0273,8.9e-4 0.041,0.002 1.05302,-0.0836 1.90651,-0.94035 1.97071,-2.04102 0.0701,-1.20189 -0.82718,-2.22388 -2.01172,-2.29297 l -10.60547,-0.61914 c -0.77919,-2.90088 -1.61152,-5.78749 -2.49609,-8.6582 l -10.81641,2.89844 c -1.14613,0.3071 -2.31926,-0.382 -2.63086,-1.54492 -0.3116,-1.16291 0.35973,-2.3472 1.50586,-2.6543 l 17.29492,-4.63281 c 0.0343,-0.009 0.0692,-0.0179 0.10352,-0.0254 h 0.002 l 1.01953,-0.27344 c 1.14613,-0.3071 1.81746,-1.49139 1.50586,-2.6543 -0.25318,-0.94487 -1.0741,-1.57618 -1.98828,-1.61523 -0.21096,-0.009 -0.42768,0.0147 -0.64258,0.0723 l -7.96289,2.13282 c -1.63464,-5.29945 -3.11126,-10.68561 -3.64258,-16.21875 -0.69518,-6.54431 -0.11897,-13.14016 0.79297,-19.63282 0.14633,-1.26676 0.23698,-2.77871 0.29492,-3.90039 0.20265,-5.05576 -0.11901,-10.11896 -0.70312,-15.14062 -0.20635,-1.75979 -0.47677,-3.77344 -0.75587,-5.53125 -1.2031,-7.716562 -2.95146,-15.478107 -5.00977,-23.076174 -0.72226,-2.653738 -1.54334,-5.509814 -2.3789,-8.220704 -2.03219,-6.467314 -4.14951,-12.93383 -6.96485,-19.109374 -0.25417,-0.593798 -0.48243,-1.340451 -1.20898,-0.759766 -3.82432,1.558102 -7.45963,3.558607 -11.03711,5.5 -11.2958,6.29159 -22.29016,13.143784 -32.81055,20.664062 -3.71955,2.679597 -7.50688,5.558675 -11.01367,8.640625 -1.27846,1.169594 -2.61487,2.609264 -4.48633,2.623047 -2.21796,0.0072 -4.34412,-0.798243 -6.55273,-0.945312 -4.53605,-0.500209 -9.09792,-0.741741 -13.6582,-0.882813 -0.60602,0.448083 -1.20137,-0.182631 -1.87305,0.02344 -5.00122,0.19417 -10.02002,0.407811 -14.97461,1.148437 -2.13898,0.314159 -4.50586,1.268039 -6.54297,0.06641 -1.48934,-0.958121 -2.65716,-2.337992 -4.06055,-3.416015 C 112.68215,76.465096 103.82925,70.578721 94.869141,64.919922 87.610171,60.404795 80.153267,55.973027 72.490234,52.078125 70.657578,51.171863 68.820721,50.254075 66.890625,49.570312 Z m 11.679687,14.494141 c 1.651407,0.585032 3.22298,1.371072 4.791016,2.146485 6.556554,3.332509 12.93566,7.123148 19.146482,10.986328 5.93333,3.74722 11.81369,7.611486 17.4043,11.857422 A 94.951584,86.465195 0 0 0 64.951172,129.81055 c -0.09428,-0.80756 -0.180357,-1.61571 -0.248047,-2.42578 -0.04568,-0.51913 -0.07147,-1.24509 -0.09961,-1.63477 -0.172009,-4.3258 0.09897,-8.65851 0.599609,-12.95508 0.264358,-2.27515 0.610332,-4.59987 1,-6.9043 0.928295,-5.37148 2.147225,-10.848391 3.560547,-16.173823 0.942052,-3.582487 2.01822,-7.252404 3.166016,-10.84375 1.618104,-4.927852 3.2585,-9.8722 5.503906,-14.556641 0.04596,-0.08366 0.09076,-0.168293 0.136719,-0.251953 z m 138.111328,0.03906 c 0.3277,-0.0059 0.47752,0.449034 0.64063,0.830078 2.40882,5.283846 4.22021,10.818075 5.95898,16.351562 0.71491,2.319458 1.41719,4.762643 2.03516,7.033203 1.76111,6.500969 3.25772,13.141804 4.28711,19.744144 0.2388,1.504 0.46993,3.22673 0.64648,4.73242 0.49977,4.29658 0.77495,8.62933 0.60156,12.95508 -0.0472,0.9131 -0.1196,2.12839 -0.23437,3.17773 A 94.951584,86.465195 0 0 0 175.71484,88.919922 c 1.01849,-0.76711 2.04028,-1.517799 3.05664,-2.25 9.00133,-6.434412 18.40749,-12.296552 28.07227,-17.679688 3.06092,-1.661072 6.17124,-3.373906 9.44336,-4.707031 0.15541,-0.124207 0.2853,-0.177687 0.39453,-0.179687 z M 115.91406,127.20898 a 11.696319,19.231096 0 0 1 11.69727,19.23047 11.696319,19.231096 0 0 1 -11.69727,19.23243 11.696319,19.231096 0 0 1 -11.69531,-19.23243 11.696319,19.231096 0 0 1 11.69531,-19.23047 z m 71.73047,9.18164 c 1.72668,0.0336 2.96075,0.99432 2.96875,2.13868 v 0.11523 c 0.01,1.31116 -1.46394,2.39936 -3.1543,2.62305 -3.44888,0.45642 -6.79678,1.53484 -9.71679,3.29687 -0.87439,0.51642 -1.7151,1.09316 -2.52344,1.72071 1.40984,-0.22676 2.84208,-0.36427 4.28906,-0.39844 4.1686,-0.0659 8.27243,0.78261 12.06055,2.32812 1.97805,0.80703 2.8442,2.53189 2.20312,3.67188 l -0.0566,0.10156 c -0.64271,1.14286 -2.46267,1.35413 -4.04101,0.70899 -3.22032,-1.31632 -6.66079,-2.04247 -10.07031,-1.96289 -3.41611,0.0474 -6.84078,0.87247 -10.13086,2.16796 -1.67299,0.65875 -3.4597,0.36749 -4.05664,-0.80468 l -0.0527,-0.10157 c -0.15205,-0.29855 -0.2027,-0.63271 -0.16406,-0.97461 -0.003,-0.78965 0.31405,-1.70639 0.99023,-2.54882 2.51236,-3.13001 5.52433,-5.93216 9.0625,-8.06836 3.58571,-2.12702 7.56946,-3.42935 11.625,-3.96875 0.26472,-0.0348 0.52091,-0.0494 0.76758,-0.0449 z M 80.25,173 h 21 c 2.6315,0 4.75,2.1185 4.75,4.75 0,2.6315 -2.1185,4.75 -4.75,4.75 h -21 c -2.6315,0 -4.75,-2.1185 -4.75,-4.75 0,-2.6315 2.1185,-4.75 4.75,-4.75 z M 195,173 h 21 c 2.6315,0 4.75,2.1185 4.75,4.75 0,2.6315 -2.1185,4.75 -4.75,4.75 h -21 c -2.6315,0 -4.75,-2.1185 -4.75,-4.75 0,-2.6315 2.1185,-4.75 4.75,-4.75 z m -43.35742,3.02539 c 3.69002,1e-5 7.37948,0.73685 8.85547,2.21289 2.95197,2.95208 -2.95136,8.85553 -8.85547,8.85547 -5.90411,-6e-5 -11.80749,-5.90345 -8.85547,-8.85547 1.47601,-1.47601 5.16545,-2.2129 8.85547,-2.21289 z m -9.89063,11.01563 v 7.5039 c -1.04067,0.0781 -1.92973,0.30404 -2.56054,0.80664 -0.73524,0.5858 -1.10352,1.49062 -1.10352,2.55078 0,1.08247 0.54769,2.00099 1.50586,2.53711 0.95817,0.53612 2.28298,0.76371 3.99805,0.76367 1.60395,0 2.79649,-0.26624 3.55078,-0.96484 0.77245,-0.67744 1.0918,-1.79962 1.0918,-3.25976 v -3.20704 h 7.25195 v 3.44532 c 0,1.35595 0.36217,2.4386 1.16601,3.09765 0.81645,0.67237 2.02477,0.94922 3.59571,0.94922 1.67546,0 2.9698,-0.22358 3.9082,-0.75 0.9384,-0.52642 1.47656,-1.42997 1.47656,-2.49219 0,-0.98586 -0.47379,-1.81639 -1.31054,-2.18554 l -0.006,-0.002 -0.006,-0.002 c -0.81257,-0.33458 -2.03034,-0.45508 -3.76563,-0.45508 h -0.33398 v -7.64257 c 1.94768,0.0636 3.61184,0.215 4.69531,0.51953 h 0.002 c 1.20759,0.35927 2.39285,0.96526 3.5625,1.82812 1.14545,0.86488 2.06615,1.98972 2.76953,3.39649 l 0.002,0.002 0.002,0.004 c 0.71881,1.39979 1.07617,2.90259 1.07617,4.5371 0,2.93867 -1.03269,5.29647 -3.14258,7.19727 h -0.002 c -2.08999,1.89999 -4.7273,2.84961 -8.00586,2.84961 -3.80395,0 -6.70174,-1.42879 -8.86328,-4.35547 l -0.47656,-0.64648 -0.36914,0.71484 c -1.76702,3.42005 -4.82569,5.0918 -9.44727,5.0918 -1.80798,0 -3.61862,-0.42677 -5.44726,-1.29297 h -0.002 c -1.78161,-0.83395 -3.04413,-2.02884 -3.84765,-3.61719 -0.79315,-1.60756 -1.19727,-3.50267 -1.19727,-5.70312 0,-3.29793 0.94875,-5.93325 2.8457,-8.00196 l 0.002,-0.002 c 1.80075,-1.94234 4.27246,-2.96522 7.38476,-3.21484 z" /><path
       id="path46"
       style="display:inline;fill:#ffffff;fill-opacity:1;stroke:none;stroke-width:4.59841"
       d="m 120.47266,132.49414 a 3.8890872,5.8720822 0 0 0 -3.88868,5.87305 3.8890872,5.8720822 0 0 0 3.88868,5.87109 3.8890872,5.8720822 0 0 0 3.89062,-5.87109 3.8890872,5.8720822 0 0 0 -3.89062,-5.87305 z M 109.77344,152.375 a 2.4193847,2.7193542 0 0 0 -2.41992,2.71875 2.4193847,2.7193542 0 0 0 2.41992,2.7207 2.4193847,2.7193542 0 0 0 2.41797,-2.7207 2.4193847,2.7193542 0 0 0 -2.41797,-2.71875 z" /></g><g
     id="g23"
     style="display:none"
     transform="translate(-0.53443909,-0.53443909)"><path
       id="path7"
       style="display:inline;opacity:1;fill:#ffffff;fill-opacity:1;stroke:none;stroke-width:1.05761"
       d="m 66.890625,49.570312 -0.160156,0.292969 c -2.624339,5.474984 -4.542416,11.256153 -6.433594,17.015625 -1.341496,4.197419 -2.598187,8.48481 -3.699219,12.671875 -1.651833,6.224147 -3.077156,12.624359 -4.162109,18.902344 -0.455428,2.693295 -0.857046,5.411205 -1.166016,8.070315 -0.585133,5.02165 -0.904162,10.08481 -0.703125,15.14062 0.03289,0.45545 0.06184,1.30537 0.115235,1.91211 0.331377,3.96589 1.052655,7.89475 1.1875,11.87891 0.410864,6.9739 -0.437687,13.99061 -2.322266,20.71094 -0.49674,1.80005 -1.031933,3.59956 -1.583984,5.39257 L 39.46875,159.2832 c -0.214896,-0.0576 -0.42966,-0.0813 -0.640625,-0.0723 -0.914179,0.0391 -1.73706,0.67037 -1.990234,1.61523 -0.311602,1.16292 0.359729,2.3472 1.505859,2.6543 l 1.019531,0.27344 h 0.002 c 0.03424,0.007 0.06925,0.0162 0.103516,0.0254 l 17.294922,4.63281 c 1.146125,0.3071 1.819414,1.49138 1.507812,2.6543 -0.311601,1.1629 -1.486687,1.85203 -2.632812,1.54492 l -10.273438,-2.75391 c -0.160455,0.52244 -0.318494,1.0446 -0.474609,1.56446 -0.69632,2.29451 -1.356673,4.60051 -1.980469,6.91601 L 31.72075,178.9902 c -1.18454,0.0691 -2.079863,1.09109 -2.009765,2.29297 0.06419,1.10065 0.916033,1.95741 1.96875,2.04102 0.01372,-10e-4 0.02722,-10e-4 0.04102,-0.002 l 17.875,-1.04297 c 0.07403,-0.004 0.148223,-0.005 0.220703,-0.002 1.087259,0.0477 1.979202,0.9201 2.044922,2.04688 0.0701,1.20189 -0.827177,2.22582 -2.011719,2.29492 l -9.126953,0.53125 c -1.135907,5.00619 -2.10117,10.05153 -2.890625,15.12305 -0.869614,6.5225 0.64996,13.28978 4.132813,18.86328 4.540736,7.35093 11.610008,12.75763 19.101562,16.85351 3.661682,1.98915 7.353834,3.62623 11.273438,5.08399 5.858236,2.18366 11.916352,3.81401 18.050781,5.00781 0.469325,0.0794 1.318661,0.23774 1.933594,0.34766 13.260259,2.30066 26.936139,2.66118 40.220699,0.3457 7.44464,-1.32813 14.78773,-3.59709 21.38281,-7.35156 8.70978,4.81765 18.6131,7.02268 28.45313,7.93945 11.83478,1.03814 23.84974,0.16284 35.38867,-2.67969 0.39922,-0.11089 1.2273,-0.32309 1.79102,-0.47265 9.81206,-2.68432 19.45478,-6.90694 27.05078,-13.8125 5.44071,-4.92594 9.51942,-11.51054 10.80273,-18.79102 0.97439,-5.06633 0.54882,-10.28203 -0.46289,-15.30664 -0.64869,-3.72442 -1.39452,-7.42985 -2.23242,-11.11523 l -9.71094,-0.56641 c -1.18454,-0.0691 -2.08182,-1.09303 -2.01172,-2.29492 0.0657,-1.12678 0.95768,-1.99918 2.04493,-2.04688 0.0725,-0.003 0.1467,-0.002 0.2207,0.002 l 17.875,1.04297 c 0.0139,8.1e-4 0.0272,8.8e-4 0.041,0.002 1.0529,-0.0837 1.90652,-0.94044 1.97071,-2.04102 0.0701,-1.20189 -0.82718,-2.22388 -2.01172,-2.29297 l -10.60547,-0.61914 c -0.7792,-2.90089 -1.61151,-5.78747 -2.49609,-8.6582 l -10.81641,2.89844 c -1.14613,0.3071 -2.31926,-0.382 -2.63086,-1.54492 -0.3116,-1.16291 0.35974,-2.3472 1.50586,-2.6543 l 17.29492,-4.63281 c 0.0345,-0.009 0.0689,-0.0179 0.10352,-0.0254 h 0.002 l 1.01953,-0.27344 c 1.14613,-0.3071 1.81746,-1.49139 1.50586,-2.6543 -0.25318,-0.94487 -1.0741,-1.57618 -1.98828,-1.61523 -0.21096,-0.009 -0.42768,0.0147 -0.64258,0.0723 l -7.96289,2.13282 c -1.63464,-5.29945 -3.11126,-10.68561 -3.64258,-16.21875 -0.69518,-6.54431 -0.11897,-13.14016 0.79297,-19.63282 0.14633,-1.26676 0.23698,-2.77871 0.29492,-3.90039 0.20265,-5.05576 -0.11901,-10.11896 -0.70312,-15.14062 -0.20635,-1.75979 -0.47676,-3.77344 -0.75586,-5.53125 -1.2031,-7.716562 -2.95146,-15.478107 -5.00977,-23.076174 -0.72226,-2.653738 -1.54334,-5.509814 -2.3789,-8.220704 -2.0322,-6.467314 -4.14952,-12.93383 -6.96485,-19.109374 -0.25417,-0.593798 -0.48243,-1.340451 -1.20898,-0.759766 -3.82432,1.558102 -7.45963,3.558607 -11.03711,5.5 -11.2958,6.29159 -22.29016,13.143784 -32.81055,20.664062 -3.71955,2.679597 -7.50688,5.558675 -11.01367,8.640625 -1.27846,1.169594 -2.61487,2.609264 -4.48633,2.623047 -2.21796,0.0072 -4.34412,-0.798243 -6.55273,-0.945312 -4.53605,-0.500209 -9.09792,-0.741741 -13.6582,-0.882813 -0.60602,0.448083 -1.20137,-0.182631 -1.87305,0.02344 -5.00122,0.19417 -10.02002,0.407811 -14.97461,1.148437 -2.13898,0.314159 -4.50586,1.268039 -6.54297,0.06641 -1.48934,-0.958121 -2.65716,-2.337992 -4.06055,-3.416015 C 112.68215,76.465096 103.82925,70.578721 94.869141,64.919922 87.610171,60.404795 80.153267,55.973027 72.490234,52.078125 70.657578,51.171863 68.820721,50.254075 66.890625,49.570312 Z m 11.679687,14.494141 c 1.651407,0.585032 3.22298,1.371075 4.791016,2.146485 6.556554,3.332509 12.935654,7.123148 19.146482,10.986328 5.93333,3.74722 11.81369,7.611489 17.4043,11.857422 A 94.951584,86.465195 0 0 0 64.951172,129.81055 c -0.09428,-0.80756 -0.180357,-1.61571 -0.248047,-2.42578 -0.04568,-0.51913 -0.07147,-1.24509 -0.09961,-1.63477 -0.172009,-4.3258 0.09897,-8.65851 0.599609,-12.95508 0.264358,-2.27515 0.610332,-4.59987 1,-6.9043 0.928295,-5.37148 2.147225,-10.848391 3.560547,-16.173823 0.942052,-3.582487 2.01822,-7.252404 3.166016,-10.84375 1.618104,-4.927852 3.2585,-9.8722 5.503906,-14.556641 0.04596,-0.08366 0.09076,-0.168293 0.136719,-0.251953 z m 138.111328,0.03906 c 0.3277,-0.0059 0.47752,0.449034 0.64063,0.830078 2.40882,5.283846 4.22021,10.818075 5.95898,16.351562 0.71491,2.319458 1.41719,4.762643 2.03516,7.033203 1.76111,6.500969 3.25772,13.141804 4.28711,19.744144 0.2388,1.504 0.46993,3.22673 0.64648,4.73242 0.49977,4.29658 0.77495,8.62933 0.60156,12.95508 -0.0472,0.9131 -0.1196,2.12839 -0.23437,3.17773 A 94.951584,86.465195 0 0 0 175.71484,88.919922 c 1.01849,-0.76711 2.04028,-1.517799 3.05664,-2.25 9.00133,-6.434412 18.40749,-12.296552 28.07227,-17.679688 3.06092,-1.661072 6.17124,-3.373906 9.44336,-4.707031 0.15541,-0.124207 0.2853,-0.177687 0.39453,-0.179687 z M 115.91406,127.20898 a 11.696319,19.231096 0 0 1 11.69727,19.23047 11.696319,19.231096 0 0 1 -11.69727,19.23243 11.696319,19.231096 0 0 1 -11.69531,-19.23243 11.696319,19.231096 0 0 1 11.69531,-19.23047 z m 62.82422,0 a 11.696319,19.231096 0 0 1 11.69727,19.23047 11.696319,19.231096 0 0 1 -11.69727,19.23243 11.696319,19.231096 0 0 1 -11.69531,-19.23243 11.696319,19.231096 0 0 1 11.69531,-19.23047 z M 80.25,173 h 21 c 2.6315,0 4.75,2.1185 4.75,4.75 0,2.6315 -2.1185,4.75 -4.75,4.75 h -21 c -2.6315,0 -4.75,-2.1185 -4.75,-4.75 0,-2.6315 2.1185,-4.75 4.75,-4.75 z M 195,173 h 21 c 2.6315,0 4.75,2.1185 4.75,4.75 0,2.6315 -2.1185,4.75 -4.75,4.75 h -21 c -2.6315,0 -4.75,-2.1185 -4.75,-4.75 0,-2.6315 2.1185,-4.75 4.75,-4.75 z m -43.35742,3.02539 c 3.69001,1e-5 7.37948,0.73686 8.85547,2.21289 2.95197,2.9521 -2.95136,8.85555 -8.85547,8.85547 -5.90411,-8e-5 -11.80749,-5.90345 -8.85547,-8.85547 1.47601,-1.47601 5.16545,-2.21289 8.85547,-2.21289 z m -9.89063,11.01563 v 7.5039 c -1.04067,0.0781 -1.92973,0.30404 -2.56054,0.80664 -0.73524,0.5858 -1.10352,1.49062 -1.10352,2.55078 0,1.08247 0.54769,2.00099 1.50586,2.53711 0.95817,0.53612 2.28298,0.76371 3.99805,0.76367 1.60395,0 2.79649,-0.26624 3.55078,-0.96484 0.77245,-0.67744 1.0918,-1.79962 1.0918,-3.25976 v -3.20704 h 7.25195 v 3.44532 c 0,1.35595 0.36217,2.4386 1.16601,3.09765 0.81645,0.67237 2.02477,0.94922 3.59571,0.94922 1.67546,0 2.9698,-0.22358 3.9082,-0.75 0.9384,-0.52642 1.47656,-1.42997 1.47656,-2.49219 0,-0.98586 -0.47379,-1.81639 -1.31054,-2.18554 l -0.006,-0.002 -0.006,-0.002 c -0.81257,-0.33458 -2.03034,-0.45508 -3.76563,-0.45508 h -0.33398 v -7.64257 c 1.94768,0.0636 3.61184,0.215 4.69531,0.51953 h 0.002 c 1.20759,0.35927 2.39285,0.96526 3.5625,1.82812 1.14545,0.86488 2.06615,1.98972 2.76953,3.39649 l 0.002,0.002 0.002,0.004 c 0.71881,1.39979 1.07617,2.90259 1.07617,4.5371 0,2.93867 -1.03269,5.29647 -3.14258,7.19727 h -0.002 c -2.08999,1.89999 -4.7273,2.84961 -8.00586,2.84961 -3.80395,0 -6.70174,-1.42879 -8.86328,-4.35547 l -0.47656,-0.64648 -0.36914,0.71484 c -1.76702,3.42005 -4.82569,5.0918 -9.44727,5.0918 -1.80798,0 -3.61862,-0.42677 -5.44726,-1.29297 h -0.002 c -1.78161,-0.83395 -3.04413,-2.02884 -3.84765,-3.61719 -0.79315,-1.60756 -1.19727,-3.50267 -1.19727,-5.70312 0,-3.29793 0.94875,-5.93325 2.8457,-8.00196 l 0.002,-0.002 c 1.80075,-1.94234 4.27246,-2.96522 7.38476,-3.21484 z" /><path
       id="path23"
       style="display:inline;fill:#ffffff;fill-opacity:1;stroke:none;stroke-width:4.59841"
       d="m 120.47266,132.49414 a 3.8890872,5.8720822 0 0 0 -3.88868,5.87305 3.8890872,5.8720822 0 0 0 3.88868,5.87109 3.8890872,5.8720822 0 0 0 3.89062,-5.87109 3.8890872,5.8720822 0 0 0 -3.89062,-5.87305 z M 109.77344,152.375 a 2.4193847,2.7193542 0 0 0 -2.41992,2.71875 2.4193847,2.7193542 0 0 0 2.41992,2.7207 2.4193847,2.7193542 0 0 0 2.41797,-2.7207 2.4193847,2.7193542 0 0 0 -2.41797,-2.71875 z" /><path
       id="path23-2"
       style="display:inline;fill:#ffffff;fill-opacity:1;stroke:none;stroke-width:4.59841"
       d="m 183.29724,132.49414 a 3.8890872,5.8720822 0 0 0 -3.88868,5.87305 3.8890872,5.8720822 0 0 0 3.88868,5.87109 3.8890872,5.8720822 0 0 0 3.89062,-5.87109 3.8890872,5.8720822 0 0 0 -3.89062,-5.87305 z M 172.59802,152.375 a 2.4193847,2.7193542 0 0 0 -2.41992,2.71875 2.4193847,2.7193542 0 0 0 2.41992,2.7207 2.4193847,2.7193542 0 0 0 2.41797,-2.7207 2.4193847,2.7193542 0 0 0 -2.41797,-2.71875 z" /></g></svg>
